<svg height="482pt" viewBox="0 -18 482.9 482" width="482pt" xmlns="http://www.w3.org/2000/svg" xmlns:xlink="http://www.w3.org/1999/xlink"><linearGradient id="a"><stop offset="0" stop-color="#00efd1"/><stop offset="1" stop-color="#00acea"/></linearGradient><linearGradient id="b" gradientTransform="matrix(1 0 0 -1 -14.6 481.025461)" gradientUnits="userSpaceOnUse" x1="256.05" x2="256.05" xlink:href="#a" y1="496.355" y2="17.118"/><linearGradient id="c" gradientTransform="matrix(1 0 0 -1 -14.6 481.025461)" gradientUnits="userSpaceOnUse" x1="394.5" x2="394.5" xlink:href="#a" y1="496.355" y2="17.118"/><path d="m472.800781 222.027344h-26.300781v-77c-.015625-5.519532-4.484375-9.984375-10-10h-40.699219v-65.5c-.023437-19.324219-15.679687-34.980469-35-35h-131.5l-25.101562-25.203125c-6.140625-6.199219-14.679688-9.4140628-23.382813-8.800781-8.707031.617187-16.710937 5-21.917968 12.003906l-16.296876 22h-82.601562c-33.125.023437-59.9726562 26.871094-60 60v291c.0273438 33.125 26.875 59.972656 60 60h377.101562c5.515626-.019532 9.984376-4.484375 10-10v-80h25.796876c5.519531-.019532 9.984374-4.484375 10-10v-113.5c-.0625-5.539063-4.5625-9.992188-10.097657-10zm-112-167.5c3.980469-.007813 7.796875 1.570312 10.613281 4.386718 2.8125 2.8125 4.390626 6.632813 4.386719 10.613282v65.5h-46.402343l-80.097657-80.5zm-185.902343-30c1.738281-2.332032 4.402343-3.789063 7.300781-4 2.898437-.210938 5.746093.84375 7.800781 2.898437l111.101562 111.601563h-208.203124zm-154.898438 70c-.007812-22.097656 17.90625-40.007813 40-40h67.800781l-59.800781 80.5h-8c-22.09375.003906-40.007812-17.90625-40-40zm407 331h-367c-22.09375.003906-40.007812-17.90625-40-40v-245.800782c10.984375 9.871094 25.234375 15.320313 40 15.300782h263.101562c1.640626.398437 3.355469.398437 5 0h98.5v67h-56.601562c-27.609375.007812-49.988281 22.386718-50 50v33.597656c.011719 27.609375 22.390625 49.992188 50 50h57.101562v69.902344zm35.800781-89.902344h-92.902343c-16.546876-.046875-29.949219-13.449219-30-30v-33.597656c.050781-16.550782 13.453124-29.953125 30-30h63.5c2.015624.664062 4.1875.664062 6.203124 0h23.199219zm0 0" fill="url(#b)"/><path d="m379.898438 262.027344c-5.515626.015625-9.984376 4.480468-10 10v33.597656c0 5.523438 4.480468 10 10 10 5.523437 0 10-4.476562 10-10v-33.597656c.011718-2.65625-1.039063-5.207032-2.917969-7.082032-1.875-1.878906-4.425781-2.929687-7.082031-2.917968zm0 0" fill="url(#c)"/></svg>